<?xml version="1.0" encoding="UTF-8" standalone="no"?>
<!-- Created with Inkscape (http://www.inkscape.org/) -->

<svg
   version="1.1"
   id="svg644"
   width="4032"
   height="3024"
   viewBox="0 0 4032 3024"
   sodipodi:docname="top-pcb2.svg"
   inkscape:version="1.2.1 (9c6d41e4, 2022-07-14)"
   xmlns:inkscape="http://www.inkscape.org/namespaces/inkscape"
   xmlns:sodipodi="http://sodipodi.sourceforge.net/DTD/sodipodi-0.dtd"
   xmlns="http://www.w3.org/2000/svg"
   xmlns:svg="http://www.w3.org/2000/svg">
  <defs
     id="defs648" />
  <sodipodi:namedview
     id="namedview646"
     pagecolor="#ffffff"
     bordercolor="#000000"
     borderopacity="0.25"
     inkscape:showpageshadow="2"
     inkscape:pageopacity="0.0"
     inkscape:pagecheckerboard="0"
     inkscape:deskcolor="#d1d1d1"
     showgrid="false"
     inkscape:zoom="0.17019803"
     inkscape:cx="2265.0086"
     inkscape:cy="1037.0273"
     inkscape:window-width="1280"
     inkscape:window-height="747"
     inkscape:window-x="0"
     inkscape:window-y="25"
     inkscape:window-maximized="0"
     inkscape:current-layer="svg644" />
  <g
     inkscape:groupmode="layer"
     inkscape:label="Image"
     id="g650" />
  <g
     inkscape:groupmode="layer"
     id="layer1"
     inkscape:label="Image 1"
     style="display:inline" />
  <g
     inkscape:groupmode="layer"
     id="layer3"
     inkscape:label="Image 2"
     style="display:inline">
    <path
       style="fill:#ff0000"
       d="m 1971.6974,1528.7469 40.8877,-81.7754 45.4308,-15.9008 38.6162,13.6292 27.2585,22.7154 18.1723,29.53 -4.5431,54.517 -38.6162,31.8016 -43.1592,9.0862 -38.6162,-4.5431 -27.2585,-18.1723 -9.0862,-27.2585 z"
       id="path1016" />
    <path
       style="fill:#ff0000"
       d="m 1771.8018,1828.5903 127.2063,6.8146 -4.5431,145.3786 -124.9348,-15.9008 z"
       id="path1072" />
    <path
       style="fill:#ff0000"
       d="m 2192.0368,1846.7626 129.4778,4.5431 v 131.7494 l -122.6632,-2.2716 z"
       id="path1074" />
    <path
       style="fill:#ff0000"
       d="m 2655.4311,1640.0524 -74.9608,-72.6893 34.0731,-86.3185 68.1462,-20.4439 43.1593,2.2715 29.53,34.0731 15.9008,43.1593 v 49.9739 l -34.0731,31.8016 -45.4308,9.0862 z"
       id="path1076" />
    <path
       style="fill:#ff0000"
       d="m 2953.003,1347.0237 -4.5431,38.6162 13.6292,74.9608 77.2324,22.7154 54.517,-15.9008 38.6162,-22.7154 6.8146,-84.047 -45.4308,-63.6031 -65.8747,-11.3577 -59.06,27.2584 z"
       id="path1078" />
    <path
       style="fill:#ff0000"
       d="m 3307.3633,1265.2482 2.2716,54.517 20.4438,45.4308 43.1593,27.2585 86.3186,-11.3577 31.8015,-43.1593 9.0862,-27.2585 -20.4439,-79.5039 -68.1462,-22.7154 -65.8747,2.2715 z"
       id="path1080" />
    <path
       style="fill:#ff0000"
       d="m 3509.5304,1658.2247 v 70.4178 l 43.1593,47.7024 68.1462,13.6292 40.8878,-20.4439 22.7154,-36.3446 6.8146,-56.7885 -27.2585,-61.3316 -47.7023,-27.2585 -47.7024,11.3577 z"
       id="path1082" />
    <path
       style="fill:#ff0000"
       d="m 3182.4286,1696.8409 77.2324,24.987 13.6292,40.8877 9.0862,70.4178 -27.2585,47.7023 -74.9609,4.5431 h -34.0731 l -43.1592,-52.2454 v -43.1593 l 31.8015,-70.4178 z"
       id="path1084" />
    <path
       style="fill:#ff0000"
       d="m 2728.1204,1946.7104 65.8747,-20.4438 54.517,74.9608 -20.4439,81.7755 -61.3316,22.7154 -56.7885,-31.8016 -18.1723,-45.4308 11.3577,-54.517 z"
       id="path1086" />
    <path
       style="display:inline;fill:#00ff00"
       d="m 2741.6581,714.40836 -26.2878,-1.54634 -15.4634,10.82437 -1.5463,15.46339 7.7317,13.91704 15.4634,9.27803 h 12.3707 l 12.3707,-3.09267 7.7317,-21.64874 z"
       id="path901" />
    <path
       style="display:inline;fill:#00ff00"
       d="m 1237.1351,1763.8523 16.2567,9.754 v 16.2567 l -8.1283,11.3797 -16.2567,1.6257 -11.3797,-8.1283 v -13.0054 l 3.2513,-17.8824 z"
       id="path899" />
    <path
       style="display:inline;fill:#00ff00"
       d="m 3407.405,2027.2109 29.2621,-32.5134 h 30.8877 l 24.3851,9.754 26.0107,32.5134 -3.2513,32.5134 -14.6311,19.5081 -29.262,22.7594 -39.0161,-6.5027 -17.8824,-16.2567 -16.2567,-30.8877 z"
       id="path891" />
    <path
       style="display:inline;fill:#00ff00"
       d="m 2097.1147,1664.6864 45.5188,19.5081 14.631,26.0107 -1.6256,30.8877 -3.2514,21.1338 -27.6364,21.1337 -22.7593,6.5026 -22.7594,-4.877 -22.7594,-16.2567 -8.1284,-11.3797 -11.3797,-34.139 27.6364,-47.1445 z"
       id="path893" />
    <path
       style="display:inline;fill:#00ff00"
       d="m 2097.1147,2101.9918 9.7541,17.8823 -1.6257,22.7594 h -16.2567 l -13.0054,-1.6257 -8.1283,-21.1337 9.754,-14.631 z"
       id="path895" />
    <path
       style="display:inline;fill:#00ff00"
       d="m 713.66928,1908.537 24.38506,22.7594 9.75402,27.6364 1.62567,34.139 -17.88238,26.0108 -32.5134,3.2513 -35.76475,-4.877 -27.6364,-29.2621 v -19.508 -35.7648 l 30.88774,-16.2567 z"
       id="path897" />
  </g>
</svg>
